<?xml version="1.0" encoding="utf-8"?>
<!-- Generator: Adobe Illustrator 19.2.0, SVG Export Plug-In . SVG Version: 6.00 Build 0)  -->
<svg version="1.0" id="characters" xmlns="http://www.w3.org/2000/svg" xmlns:xlink="http://www.w3.org/1999/xlink" x="0px" y="0px"
	 viewBox="0 0 453.5 232.4" style="enable-background:new 0 0 453.5 232.4;" xml:space="preserve">
<style type="text/css">
	.st0{fill:#F9F9F9;}
</style>
<g>
	<path class="st0" d="M0,0v232h454V0H0z M409.8,223H9V116.2L52.9,9H444v130.5L409.8,223z"/>
	<g>
		<path class="st0" d="M104.7,116.2h-4.5c-0.5,0-1-0.1-1.3-0.4c-0.3-0.3-0.6-0.7-0.8-1.1L88.5,91h-40l-9.6,23.7
			c-0.2,0.4-0.4,0.8-0.8,1.1c-0.4,0.3-0.8,0.5-1.4,0.5h-4.5l33.3-81.5h5.8L104.7,116.2z M50.2,86.6h36.5L70.1,45.4
			c-0.6-1.3-1.1-3-1.7-4.8c-0.3,0.9-0.5,1.8-0.8,2.6c-0.3,0.8-0.5,1.6-0.8,2.2L50.2,86.6z"/>
		<path class="st0" d="M122.5,34.9c0.3,0.1,0.6,0.4,1,0.9l52.8,70.6c-0.1-1.2-0.2-2.3-0.2-3.3V34.7h5.1v81.5h-2.8
			c-0.5,0-0.9-0.1-1.2-0.3c-0.3-0.2-0.6-0.5-1-0.9l-52.9-70.7c0.1,1.2,0.2,2.2,0.2,3.2v68.6h-5.2V34.7h2.9
			C121.8,34.7,122.2,34.8,122.5,34.9z"/>
		<path class="st0" d="M258.2,34.7v5h-28.6v76.5h-5.9V39.7h-28.8v-5H258.2z"/>
		<path class="st0" d="M339.6,75.4c0,6.3-0.9,12-2.8,17.1s-4.5,9.5-7.9,13.1c-3.4,3.6-7.5,6.4-12.3,8.4c-4.8,2-10,3-15.8,3
			c-5.8,0-11-1-15.8-3c-4.8-2-8.9-4.8-12.3-8.4c-3.4-3.6-6.1-8-7.9-13.1c-1.9-5.1-2.8-10.8-2.8-17.1c0-6.3,0.9-12,2.8-17.1
			c1.9-5.1,4.5-9.5,7.9-13.1c3.4-3.6,7.5-6.4,12.3-8.4c4.8-2,10-3,15.8-3c5.8,0,11,1,15.8,3c4.8,2,8.9,4.8,12.3,8.4
			c3.4,3.6,6.1,8,7.9,13.2C338.6,63.5,339.6,69.2,339.6,75.4z M333.5,75.4c0-5.7-0.8-10.8-2.4-15.3c-1.6-4.5-3.8-8.4-6.7-11.5
			c-2.9-3.1-6.3-5.6-10.4-7.2c-4-1.7-8.5-2.5-13.4-2.5c-4.8,0-9.3,0.8-13.3,2.5c-4,1.7-7.5,4.1-10.4,7.2c-2.9,3.1-5.1,7-6.7,11.5
			c-1.6,4.5-2.4,9.6-2.4,15.3c0,5.7,0.8,10.8,2.4,15.3c1.6,4.5,3.8,8.3,6.7,11.5c2.9,3.1,6.4,5.5,10.4,7.2c4,1.7,8.5,2.5,13.3,2.5
			c4.9,0,9.3-0.8,13.4-2.5c4-1.7,7.5-4.1,10.4-7.2c2.9-3.1,5.1-7,6.7-11.5C332.7,86.3,333.5,81.2,333.5,75.4z"/>
		<path class="st0" d="M362.5,34.9c0.3,0.1,0.6,0.4,1,0.9l52.8,70.6c-0.1-1.2-0.2-2.3-0.2-3.3V34.7h5.1v81.5h-2.8
			c-0.5,0-0.9-0.1-1.2-0.3s-0.6-0.5-1-0.9l-52.9-70.7c0.1,1.2,0.2,2.2,0.2,3.2v68.6h-5.2V34.7h2.9C361.8,34.7,362.2,34.8,362.5,34.9
			z"/>
	</g>
	<g>
		<path class="st0" d="M61.7,183.8c0.2-0.4,0.3-0.8,0.5-1.3c0.2-0.4,0.4-0.9,0.6-1.2l23.1-41c0.2-0.4,0.5-0.6,0.7-0.7
			c0.2-0.1,0.5-0.1,0.9-0.1h2.9v59h-3.7v-50.3c0-0.3,0-0.7,0-1.1c0-0.4,0-0.8,0.1-1.2l-23.2,41.2c-0.4,0.7-0.9,1.1-1.7,1.1h-0.7
			c-0.7,0-1.3-0.4-1.7-1.1l-23.8-41.3c0.1,0.8,0.1,1.6,0.1,2.3v50.3h-3.8v-59h3c0.4,0,0.7,0,0.9,0.1c0.2,0.1,0.4,0.3,0.7,0.7
			l23.8,41C61.1,182,61.4,182.9,61.7,183.8z"/>
		<path class="st0" d="M112.3,198.4H108v-59h4.3V198.4z"/>
		<path class="st0" d="M134,194.8h27.9v3.6h-32.2v-59h4.3V194.8z"/>
		<path class="st0" d="M182.2,174.1v24.3H178v-24.3l-21.8-34.7h3.8c0.4,0,0.7,0.1,1,0.3s0.5,0.4,0.6,0.8l16.9,27.1
			c0.4,0.6,0.7,1.3,1,1.9s0.5,1.2,0.8,1.8c0.2-0.6,0.5-1.2,0.8-1.8c0.3-0.6,0.6-1.2,1-1.9l16.9-27.1c0.1-0.3,0.3-0.6,0.6-0.8
			c0.3-0.2,0.6-0.3,1-0.3h3.8L182.2,174.1z"/>
		<path class="st0" d="M253.2,198.4h-3.3c-0.4,0-0.7-0.1-1-0.3s-0.4-0.5-0.6-0.8l-6.9-17.1h-29l-6.9,17.1c-0.1,0.3-0.3,0.6-0.6,0.8
			c-0.3,0.2-0.6,0.3-1,0.3h-3.2l24.1-59h4.2L253.2,198.4z M213.7,177h26.4l-12-29.8c-0.4-1-0.8-2.1-1.2-3.5
			c-0.2,0.7-0.4,1.3-0.6,1.9c-0.2,0.6-0.4,1.2-0.6,1.6L213.7,177z"/>
		<path class="st0" d="M267.2,166.7h3.5c0.5,0,1,0,1.4-0.1c0.4,0,0.7-0.1,1.1-0.2s0.6-0.3,0.9-0.5c0.3-0.2,0.5-0.5,0.9-0.8
			l23.8-24.5c0.4-0.5,0.8-0.8,1.2-1c0.4-0.2,0.9-0.2,1.4-0.2h3.4L279,165.9c-0.5,0.6-1,1-1.4,1.3c-0.4,0.3-0.9,0.6-1.4,0.8
			c0.6,0.2,1.1,0.4,1.6,0.8c0.5,0.3,0.9,0.8,1.4,1.4l27.1,28.3h-3.5c-0.7,0-1.2-0.1-1.6-0.3c-0.3-0.2-0.6-0.5-0.9-0.9l-24.9-25.5
			c-0.3-0.3-0.6-0.6-0.9-0.8c-0.3-0.2-0.6-0.4-0.9-0.6s-0.7-0.3-1.1-0.3c-0.4-0.1-1-0.1-1.6-0.1h-3.8v28.4h-4.3v-59h4.3V166.7z"/>
		<path class="st0" d="M364.1,168.9c0,4.6-0.7,8.7-2,12.4c-1.4,3.7-3.3,6.9-5.8,9.5c-2.5,2.6-5.4,4.7-8.9,6.1
			c-3.5,1.4-7.3,2.1-11.4,2.1s-8-0.7-11.4-2.1s-6.4-3.5-8.9-6.1c-2.5-2.6-4.4-5.8-5.8-9.5c-1.4-3.7-2-7.8-2-12.4
			c0-4.5,0.7-8.6,2-12.4c1.4-3.7,3.3-6.9,5.8-9.5c2.5-2.6,5.4-4.7,8.9-6.1c3.4-1.4,7.2-2.2,11.4-2.2s8,0.7,11.4,2.1
			c3.5,1.4,6.4,3.5,8.9,6.1c2.5,2.6,4.4,5.8,5.8,9.5C363.4,160.3,364.1,164.4,364.1,168.9z M359.7,168.9c0-4.1-0.6-7.8-1.7-11.1
			c-1.1-3.3-2.8-6.1-4.8-8.3c-2.1-2.3-4.6-4-7.5-5.2c-2.9-1.2-6.1-1.8-9.7-1.8c-3.5,0-6.7,0.6-9.6,1.8c-2.9,1.2-5.4,3-7.5,5.2
			c-2.1,2.3-3.7,5.1-4.9,8.3s-1.7,7-1.7,11.1c0,4.1,0.6,7.8,1.7,11.1c1.2,3.3,2.8,6,4.9,8.3c2.1,2.3,4.6,4,7.5,5.2s6.1,1.8,9.6,1.8
			c3.5,0,6.8-0.6,9.7-1.8s5.4-2.9,7.5-5.2c2.1-2.3,3.7-5,4.8-8.3C359.1,176.8,359.7,173.1,359.7,168.9z"/>
		<path class="st0" d="M368.7,139.5h3.4c0.4,0,0.7,0.1,1,0.3c0.2,0.2,0.4,0.5,0.6,0.8l20.1,48.9c0.2,0.6,0.4,1.3,0.7,2
			c0.2,0.7,0.4,1.4,0.6,2.1c0.2-0.7,0.4-1.4,0.6-2.1c0.2-0.7,0.4-1.3,0.7-2l20-48.9c0.1-0.3,0.3-0.6,0.6-0.8c0.3-0.2,0.6-0.3,1-0.3
			h3.3l-24.3,59h-3.8L368.7,139.5z"/>
	</g>
</g>
</svg>
